<svg width="35" height="35" viewBox="0 0 35 35" fill="none" xmlns="http://www.w3.org/2000/svg">
<path d="M17.2824 0.0689087C7.82221 0.0689087 0.0820312 7.82292 0.0820312 17.373C0.0820312 26.0077 6.37738 33.1745 14.5992 34.4698V22.3811H10.2303V17.373H14.5992V13.5564C14.5992 9.22175 17.162 6.83855 21.1009 6.83855C22.9758 6.83855 24.9366 7.16668 24.9366 7.16668V11.4322H22.7694C20.6365 11.4322 19.9657 12.762 19.9657 14.1263V17.373H24.7474L23.9734 22.3811H19.9657V34.4698C24.0189 33.8271 27.7097 31.7507 30.3718 28.6155C33.034 25.4803 34.492 21.4928 34.4828 17.373C34.4828 7.82292 26.7427 0.0689087 17.2824 0.0689087Z" fill="#7C7C7C"/>
</svg>
