<svg width="35" height="35" viewBox="0 0 35 35" fill="none" xmlns="http://www.w3.org/2000/svg">
<g clip-path="url(#clip0)">
<path d="M14.5063 17.2004C14.5063 19.0187 15.9802 20.4927 17.7986 20.4927C19.6169 20.4927 21.0908 19.0187 21.0908 17.2004C21.0908 15.3821 19.6169 13.9081 17.7986 13.9081C15.9802 13.9081 14.5063 15.3821 14.5063 17.2004Z" fill="#7C7C7C"/>
<path d="M10.0992 11.3754C10.2575 10.9465 10.5099 10.5583 10.838 10.2397C11.1566 9.91164 11.5445 9.65916 11.9737 9.50089C12.3217 9.36573 12.8445 9.20484 13.8075 9.16101C14.8492 9.11351 15.1615 9.10327 17.7987 9.10327C20.4361 9.10327 20.7484 9.11324 21.7898 9.16075C22.7528 9.20484 23.2759 9.36573 23.6236 9.50089C24.0528 9.65916 24.4409 9.91164 24.7593 10.2397C25.0874 10.5583 25.3398 10.9462 25.4984 11.3754C25.6335 11.7234 25.7944 12.2465 25.8383 13.2094C25.8858 14.2509 25.896 14.5632 25.896 17.2006C25.896 19.8378 25.8858 20.1501 25.8383 21.1918C25.7944 22.1548 25.6335 22.6776 25.4984 23.0256C25.3398 23.4547 25.0876 23.8426 24.7596 24.1613C24.4409 24.4893 24.053 24.7418 23.6239 24.9001C23.2759 25.0355 22.7528 25.1964 21.7898 25.2402C20.7484 25.2877 20.4364 25.2977 17.7989 25.2977C15.1612 25.2977 14.8489 25.2877 13.8077 25.2402C12.8448 25.1964 12.3217 25.0355 11.9737 24.9001C11.1123 24.5678 10.4315 23.887 10.0992 23.0256C9.96403 22.6776 9.80314 22.1548 9.75905 21.1918C9.71155 20.1501 9.70157 19.8378 9.70157 17.2006C9.70157 14.5632 9.71155 14.2509 9.75905 13.2094C9.80288 12.2465 9.96377 11.7234 10.0992 11.3754ZM17.7987 22.2721C20.5999 22.2721 22.8706 20.0016 22.8706 17.2004C22.8706 14.3991 20.5999 12.1286 17.7987 12.1286C14.9977 12.1286 12.7269 14.3991 12.7269 17.2004C12.7269 20.0016 14.9977 22.2721 17.7987 22.2721ZM12.5264 13.1134C13.181 13.1134 13.7117 12.5827 13.7117 11.9281C13.7117 11.2735 13.181 10.7428 12.5264 10.7428C11.8718 10.7428 11.3411 11.2735 11.3411 11.9281C11.3414 12.5827 11.8718 13.1134 12.5264 13.1134Z" fill="#7C7C7C"/>
<path d="M17.7986 0C27.2967 0 34.999 7.70234 34.999 17.2004C34.999 26.6985 27.2967 34.4009 17.7986 34.4009C8.30052 34.4009 0.598171 26.6985 0.598171 17.2004C0.598171 7.70234 8.30052 0 17.7986 0ZM7.98137 21.2725C8.02914 22.3239 8.19632 23.0417 8.44041 23.67C8.95351 24.9967 10.0023 26.0455 11.329 26.5586C11.9571 26.8027 12.6752 26.9696 13.7263 27.0177C14.7795 27.0657 15.116 27.0772 17.7983 27.0772C20.4809 27.0772 20.8171 27.0657 21.8706 27.0177C22.9218 26.9696 23.6399 26.8027 24.2679 26.5586C24.9272 26.3106 25.524 25.9219 26.0175 25.4193C26.5198 24.9261 26.9085 24.329 27.1565 23.67C27.4006 23.0419 27.5678 22.3239 27.6156 21.2727C27.6641 20.2192 27.6754 19.8827 27.6754 17.2004C27.6754 14.5181 27.6641 14.1816 27.6158 13.1284C27.5681 12.077 27.4011 11.3592 27.1571 10.7308C26.909 10.0718 26.5201 9.47472 26.0175 8.98156C25.5243 8.47896 24.9272 8.09026 24.2682 7.84224C23.6399 7.59815 22.922 7.43123 21.8706 7.3832C20.8174 7.33517 20.4809 7.32362 17.7986 7.32362C15.1163 7.32362 14.7798 7.33517 13.7266 7.38346C12.6752 7.43123 11.9573 7.59815 11.329 7.84197C10.67 8.09 10.0729 8.47896 9.57947 8.98156C9.07713 9.47498 8.68817 10.0718 8.44041 10.7308C8.19606 11.3592 8.02914 12.077 7.98111 13.1284C7.93308 14.1816 7.92179 14.5181 7.92179 17.2004C7.92179 19.8827 7.93308 20.2192 7.98137 21.2725Z" fill="#7C7C7C"/>
</g>
<defs>
<clipPath id="clip0">
<rect width="34.4009" height="34.4009" fill="white" transform="matrix(-1 0 0 1 34.999 0)"/>
</clipPath>
</defs>
</svg>
