<svg width="36" height="35" viewBox="0 0 36 35" fill="none" xmlns="http://www.w3.org/2000/svg">
<path d="M18.0649 0C8.56572 0 0.864502 7.70086 0.864502 17.2004C0.864502 26.7 8.56572 34.4009 18.0649 34.4009C27.5641 34.4009 35.2654 26.7 35.2654 17.2004C35.2654 7.70086 27.5641 0 18.0649 0ZM26.7899 19.0607C27.5916 19.8437 28.4397 20.5807 29.1594 21.4447C29.4783 21.8269 29.7788 22.2221 30.0076 22.6666C30.3342 23.3004 30.0392 23.9954 29.4719 24.0331L25.9481 24.0324C25.038 24.1077 24.3137 23.7406 23.7031 23.1184C23.2157 22.6226 22.7635 22.0929 22.294 21.5802C22.1022 21.3697 21.9002 21.1716 21.6595 21.0157C21.1791 20.7032 20.7617 20.7989 20.4865 21.3007C20.2061 21.8114 20.142 22.3773 20.1153 22.9456C20.0769 23.7765 19.8263 23.9937 18.9926 24.0327C17.2112 24.1161 15.5208 23.8459 13.9498 22.9477C12.564 22.1556 11.4913 21.0375 10.5566 19.7716C8.7364 17.3039 7.34242 14.5955 6.08991 11.8093C5.80802 11.1818 6.01425 10.846 6.70649 10.833C7.85659 10.8108 9.00668 10.8137 10.1568 10.832C10.6248 10.8393 10.9345 11.1072 11.1144 11.5488C11.7359 13.078 12.4978 14.5328 13.4526 15.8821C13.707 16.2414 13.9667 16.5997 14.3366 16.8534C14.7448 17.1336 15.056 17.041 15.2485 16.5853C15.3716 16.2956 15.4248 15.9859 15.4515 15.6755C15.543 14.6124 15.5539 13.5495 15.3956 12.4906C15.297 11.8279 14.9243 11.4 14.2638 11.2747C13.9273 11.211 13.9766 11.0864 14.1402 10.8942C14.4242 10.562 14.6903 10.3565 15.2221 10.3565L19.2034 10.3558C19.8309 10.479 19.9717 10.7605 20.0568 11.3926L20.0604 15.817C20.053 16.0616 20.1832 16.7866 20.6224 16.9467C20.9743 17.0628 21.2066 16.7806 21.417 16.5578C22.3718 15.5446 23.0521 14.3488 23.6613 13.111C23.9301 12.5652 24.1621 12.0004 24.3873 11.4345C24.5548 11.016 24.8152 10.8101 25.2875 10.8172L29.1214 10.8218C29.2344 10.8218 29.3491 10.8228 29.461 10.8422C30.1072 10.9527 30.2842 11.2307 30.0843 11.861C29.7697 12.8513 29.1584 13.6762 28.5608 14.5033C27.9203 15.3887 27.2372 16.2432 26.603 17.1325C26.0202 17.9455 26.0663 18.3547 26.7899 19.0607Z" fill="#7C7C7C"/>
</svg>
